<svg enable-background="new 0 0 512 512" height="512" width="512" xmlns="http://www.w3.org/2000/svg"><rect id="backgroundrect" width="100%" height="100%" x="0" y="0" fill="none" stroke="none"/><g class="currentLayer" style=""><title>Layer 1</title><g id="svg_1" class="selected" fill="#ffffff" fill-opacity="1"><path d="m351.661 180.189c3.259-2.558 3.826-7.272 1.269-10.53-23.537-29.982-58.867-47.179-96.93-47.179-67.899 0-123.14 55.24-123.14 123.14s55.241 123.14 123.14 123.14 123.14-55.24 123.14-123.14c0-14.999-2.663-29.637-7.916-43.507-1.467-3.874-5.799-5.822-9.67-4.357-3.874 1.467-5.824 5.796-4.357 9.67 4.607 12.166 6.943 25.017 6.943 38.194 0 59.628-48.512 108.14-108.14 108.14s-108.14-48.512-108.14-108.14 48.512-108.14 108.14-108.14c33.427 0 64.456 15.104 85.131 41.44 2.557 3.258 7.271 3.826 10.53 1.269z" id="svg_2" fill="#ffffff" fill-opacity="1"/><path d="m256 154.803c-50.076 0-90.816 40.74-90.816 90.816s40.74 90.816 90.816 90.816 90.816-40.74 90.816-90.816-40.74-90.816-90.816-90.816zm0 166.633c-41.806 0-75.816-34.011-75.816-75.816s34.011-75.816 75.816-75.816 75.816 34.011 75.816 75.816-34.01 75.816-75.816 75.816z" id="svg_3" fill="#ffffff" fill-opacity="1"/><path d="m256 187.098c-32.269 0-58.521 26.253-58.521 58.521s26.253 58.521 58.521 58.521 58.521-26.253 58.521-58.521-26.252-58.521-58.521-58.521zm0 102.043c-23.998 0-43.521-19.523-43.521-43.521s19.523-43.521 43.521-43.521 43.521 19.523 43.521 43.521-19.523 43.521-43.521 43.521z" id="svg_4" fill="#ffffff" fill-opacity="1"/><path d="m89.67 122.478c-18.202 0-33.011 14.809-33.011 33.011s14.809 33.011 33.011 33.011 33.011-14.809 33.011-33.011-14.809-33.011-33.011-33.011zm0 51.021c-9.931 0-18.011-8.08-18.011-18.011s8.08-18.011 18.011-18.011 18.011 8.08 18.011 18.011-8.08 18.011-18.011 18.011z" id="svg_5" fill="#ffffff" fill-opacity="1"/><path d="m89.67 205.824c-13.047 0-23.662 10.615-23.662 23.662 0 13.048 10.615 23.663 23.662 23.663 13.048 0 23.663-10.615 23.663-23.663 0-13.047-10.615-23.662-23.663-23.662zm0 32.325c-4.776 0-8.662-3.887-8.662-8.663s3.886-8.662 8.662-8.662 8.663 3.886 8.663 8.662-3.887 8.663-8.663 8.663z" id="svg_6" fill="#ffffff" fill-opacity="1"/><path d="m441.466 72.765v-14.757c0-9.705-7.896-17.602-17.602-17.602h-31.127c-9.705 0-17.602 7.896-17.602 17.602v14.722h-38.494v-24.824c.001-26.416-21.49-47.906-47.906-47.906h-65.471c-26.416 0-47.906 21.49-47.906 47.906v24.824h-57.578c-4.143 0-7.5 3.357-7.5 7.5s3.357 7.5 7.5 7.5h322.31c18.142 0 32.9 14.763 32.9 32.909v239.351c0 18.146-14.759 32.91-32.9 32.91h-91.68c-4.143 0-7.5 3.357-7.5 7.5s3.357 7.5 7.5 7.5h8.754v56.774h-203.194v-56.774h159.34c4.143 0 7.5-3.357 7.5-7.5s-3.357-7.5-7.5-7.5h-241.4c-18.142 0-32.9-14.764-32.9-32.91v-239.35c0-18.146 14.759-32.909 32.9-32.909h10.77c4.143 0 7.5-3.357 7.5-7.5s-3.357-7.5-7.5-7.5h-10.77c-26.412 0-47.9 21.492-47.9 47.909v239.35c0 26.418 21.488 47.91 47.9 47.91h34.734v96.6c0 4.143 3.357 7.5 7.5 7.5h282.846c4.143 0 7.5-3.357 7.5-7.5v-96.6h35.6c26.412 0 47.9-21.492 47.9-47.91v-239.35c0-25.956-20.748-47.142-46.524-47.875zm-51.33-14.757c0-1.435 1.167-2.602 2.602-2.602h31.127c1.435 0 2.602 1.167 2.602 2.602v14.722h-36.33v-14.722zm-199.778-10.102c0-18.144 14.762-32.906 32.907-32.906h65.471c18.145 0 32.906 14.762 32.906 32.906v24.824h-17.324v-22.803c0-9.705-7.896-17.602-17.602-17.602h-61.432c-9.705 0-17.602 7.896-17.602 17.602v22.803h-17.324zm98.959 24.824h-66.635v-22.803c0-1.435 1.167-2.602 2.602-2.602h61.432c1.435 0 2.602 1.167 2.602 2.602v22.803zm100.173 424.27h-267.845v-89.1h17.325v64.274c0 4.143 3.357 7.5 7.5 7.5h218.194c4.143 0 7.5-3.357 7.5-7.5v-64.274h17.326z" id="svg_7" fill="#ffffff" fill-opacity="1"/><path d="m396.99 343.246h32.325c4.143 0 7.5-3.357 7.5-7.5s-3.357-7.5-7.5-7.5h-32.325c-4.143 0-7.5 3.357-7.5 7.5s3.358 7.5 7.5 7.5z" id="svg_8" fill="#ffffff" fill-opacity="1"/><path d="m396.99 375.571h32.325c4.143 0 7.5-3.357 7.5-7.5s-3.357-7.5-7.5-7.5h-32.325c-4.143 0-7.5 3.357-7.5 7.5s3.358 7.5 7.5 7.5z" id="svg_9" fill="#ffffff" fill-opacity="1"/></g></g></svg>